<?xml version="1.0" encoding="UTF-8" standalone="no"?>
<svg
   xmlns:dc="http://purl.org/dc/elements/1.1/"
   xmlns:cc="http://creativecommons.org/ns#"
   xmlns:rdf="http://www.w3.org/1999/02/22-rdf-syntax-ns#"
   xmlns:svg="http://www.w3.org/2000/svg"
   xmlns="http://www.w3.org/2000/svg"
   xmlns:sodipodi="http://sodipodi.sourceforge.net/DTD/sodipodi-0.dtd"
   xmlns:inkscape="http://www.inkscape.org/namespaces/inkscape"
   width="800"
   height="800"
   version="1.1"
   viewBox="0 0 800.00313 800.00001"
   id="svg9"
   sodipodi:docname="user_icon.svg"
   inkscape:export-filename="C:\python\personal-chatbot\public\system_icon.png"
   inkscape:export-xdpi="150"
   inkscape:export-ydpi="150"
   inkscape:version="1.0.1 (3bc2e813f5, 2020-09-07)">
  <metadata
     id="metadata13">
    <rdf:RDF>
      <cc:Work
         rdf:about="">
        <dc:format>image/svg+xml</dc:format>
        <dc:type
           rdf:resource="http://purl.org/dc/dcmitype/StillImage" />
        <dc:title></dc:title>
      </cc:Work>
    </rdf:RDF>
  </metadata>
  <sodipodi:namedview
     pagecolor="#ffffff"
     bordercolor="#666666"
     borderopacity="1"
     objecttolerance="10"
     gridtolerance="10"
     guidetolerance="10"
     inkscape:pageopacity="0"
     inkscape:pageshadow="2"
     inkscape:window-width="1920"
     inkscape:window-height="1009"
     id="namedview11"
     showgrid="false"
     inkscape:zoom="0.70504445"
     inkscape:cx="164.72941"
     inkscape:cy="348.95878"
     inkscape:window-x="-8"
     inkscape:window-y="-8"
     inkscape:window-maximized="1"
     inkscape:current-layer="svg9"
     inkscape:document-rotation="0" />
  <defs
     id="defs5">
    <mask
       id="a"
       maskUnits="userSpaceOnUse">
      <circle
         cx="400"
         cy="400"
         r="400"
         color="#000000"
         color-rendering="auto"
         fill="#ffffff"
         fill-rule="evenodd"
         image-rendering="auto"
         shape-rendering="auto"
         solid-color="#000000"
         stroke-width="0"
         style="isolation:auto;mix-blend-mode:normal"
         id="circle2" />
    </mask>
  </defs>
  <path
     transform="matrix(2.4113,0,0,2.4113,-566.82489,-563.13949)"
     d="m 399.99,234.11 c -51.824,2.4e-4 -93.835,42.012 -93.835,93.835 -6.5e-4,51.824 42.011,93.837 93.835,93.837 51.824,-2.3e-4 93.836,-42.013 93.835,-93.837 -2.4e-4,-51.824 -42.012,-93.835 -93.835,-93.835 z m 84.258,185.78 c -22.985,21.114 -53.047,32.853 -84.258,32.901 -31.166,-0.0566 -61.183,-11.769 -84.151,-32.835 -46.6,30.851 -74.96,85.053 -75.04,143.42 0.0313,0.83786 0.0686,1.6754 0.11151,2.5127 h 318.18 c 0.0436,-0.83725 0.0813,-1.6748 0.11311,-2.5127 -0.0349,-58.365 -28.354,-112.59 -74.931,-143.48 z"
     color="#000000"
     color-rendering="auto"
     fill="#404040"
     image-rendering="auto"
     mask="url(#a)"
     shape-rendering="auto"
     solid-color="#000000"
     stroke-width="0"
     style="isolation:auto;mix-blend-mode:normal;fill:#ffb380;fill-opacity:1"
     id="path7" />
</svg>
